<!-- Generator: Adobe Illustrator 19.1.0, SVG Export Plug-In  -->
<svg version="1.1"
	 xmlns="http://www.w3.org/2000/svg" xmlns:xlink="http://www.w3.org/1999/xlink" xmlns:a="http://ns.adobe.com/AdobeSVGViewerExtensions/3.0/"
	 x="0px" y="0px" width="145.648px" height="135.895px" viewBox="0 0 145.648 135.895"
	 style="enable-background:new 0 0 145.648 135.895;" xml:space="preserve">
<style type="text/css">
	.st0{fill:#69C8C3;}
	.st1{fill:#F37548;}
	.st2{fill:#CEE9F8;}
</style>
<defs>
</defs>
<g>
	<path class="st0" d="M70.082,135.895l75.566-75.566C108.373,23.055,56.879,0,0,0v106.866
		C27.369,106.866,52.146,117.959,70.082,135.895z"/>
	<g>
		<path class="st1" d="M67.028,38.715c-5.568-0.596-11.685-1.252-17.825-4.164c-0.815,1.013-1.627,2.064-2.435,3.158
			c-0.524,0.705-1.043,1.428-1.558,2.162c12.162,5.606,24.197,13.975,31.088,24.967c1.44-3.518,2.258-7.356,2.299-11.383
			c0.012-1.192-0.043-2.372-0.163-3.532c0-0.005-0.001-0.009-0.001-0.013c-0.059-0.57-0.134-1.136-0.223-1.695
			c-0.004-0.021-0.007-0.042-0.011-0.063c-0.09-0.556-0.194-1.108-0.313-1.654c-0.001-0.004-0.002-0.007-0.002-0.01
			c-0.492-2.24-1.225-4.39-2.173-6.422C73.079,39.371,70.143,39.052,67.028,38.715z"/>
		<path class="st1" d="M37.904,48.058c-5.677-2.361-11.128-0.475-15.715,2.732c-2.033,1.423-3.895,3.101-5.542,4.794
			c0.7,8.943,5.211,16.845,11.925,22.062c0.067-1.385,0.191-2.777,0.379-4.171C30.128,64.804,33.541,55.995,37.904,48.058z"/>
		<path class="st1" d="M44.344,41.54c-0.069-0.034-0.141-0.067-0.206-0.096c-1.252,1.857-2.467,3.803-3.624,5.808
			c9.207,5.352,13.219,22.897,16.053,35.578c8.221-2.495,15.018-8.319,18.8-15.912C68.82,55.717,56.651,47.195,44.344,41.54z"/>
		<path class="st1" d="M54.756,83.318c-2.76-12.347-6.658-29.481-15.165-34.432c-4.287,7.776-7.635,16.388-8.781,24.845
			c-0.238,1.753-0.375,3.499-0.41,5.229c4.185,2.791,9.082,4.596,14.363,5.072c0.104,0.01,0.209,0.02,0.314,0.027
			c0.318,0.026,0.639,0.048,0.961,0.064c0.089,0.004,0.178,0.005,0.266,0.009c0.314,0.013,0.628,0.024,0.945,0.027
			c1.289,0.014,2.561-0.053,3.811-0.194c0.008-0.001,0.015-0.002,0.023-0.003C52.331,83.82,53.556,83.604,54.756,83.318z"/>
		<path class="st1" d="M45.256,36.592c0.743-1.001,1.489-1.97,2.239-2.908c-6.012-3.252-8.55-6.781-9.37-10.1
			c-5.456,1.749-10.264,4.967-13.948,9.199c5.838,1.241,12.549,3.346,19.29,6.305C44.06,38.237,44.657,37.405,45.256,36.592z"/>
		<path class="st1" d="M48.708,32.203c2.867-3.431,5.746-6.346,8.421-8.592c-0.727-0.237-1.467-0.446-2.217-0.629
			c-0.003-0.001-0.005-0.001-0.006-0.003c-1.112-0.269-2.248-0.478-3.403-0.625c-0.017-0.003-0.034-0.005-0.052-0.007
			c-0.333-0.042-0.668-0.076-1.004-0.107c-0.112-0.011-0.225-0.02-0.338-0.029c-0.326-0.026-0.654-0.051-0.983-0.067
			c-0.068-0.003-0.136-0.004-0.205-0.006c-0.342-0.016-0.686-0.027-1.031-0.031c-0.67-0.007-1.336,0.008-1.997,0.044
			c-0.019,0-0.039,0.002-0.059,0.004c-0.637,0.035-1.27,0.089-1.896,0.164c-0.028,0.002-0.057,0.006-0.085,0.009
			c-1.296,0.155-2.569,0.392-3.812,0.703C40.781,26.033,43.108,29.243,48.708,32.203z"/>
		<path class="st1" d="M50.435,33.056c5.728,2.612,11.519,3.234,16.798,3.799c2.579,0.279,5.042,0.545,7.337,1.014
			c-3.454-6.087-8.906-10.899-15.468-13.536C56.427,26.491,53.445,29.472,50.435,33.056z"/>
		<path class="st1" d="M16.547,53.043c1.401-1.341,2.927-2.644,4.567-3.791c5.119-3.578,11.251-5.652,17.718-2.842
			c1.139-1.981,2.334-3.899,3.562-5.743c-6.907-3.009-13.737-5.1-19.546-6.262c-3.132,4.123-5.256,9.052-6.005,14.423
			c-0.012,0.091-0.025,0.181-0.037,0.271c-0.045,0.342-0.084,0.686-0.116,1.032c-0.011,0.111-0.02,0.224-0.03,0.335
			c-0.03,0.348-0.058,0.698-0.075,1.048c-0.001,0.026-0.002,0.053-0.003,0.079c-0.02,0.404-0.033,0.812-0.037,1.22
			C16.543,52.89,16.548,52.967,16.547,53.043z"/>
	</g>
	<g>
		<path class="st2" d="M81.207,88.826c7.217-3.586,13.386-9.507,11.211-13.882c-0.974-1.961-3.212-2.772-6.032-2.748
			c-0.191-0.001-0.383,0.002-0.579,0.008c4.962-2.686,9.011-4.771,9.011-4.771l-0.004-0.006c0.09,0.068,0.253,0.167,0.515,0.21
			l1.72,0.28c0.41,0.065,0.896,0.424,1.081,0.796l0.446,0.898c0.184,0.373,0.64,0.525,1.012,0.34l2.663-1.324
			c0.372-0.185,0.526-0.641,0.341-1.013l-5.065-10.191c-0.184-0.371-0.639-0.524-1.012-0.339l-2.663,1.323
			c-0.372,0.185-0.524,0.64-0.339,1.012l0.616,1.24c0.184,0.372,0.207,0.99,0.048,1.375l-0.761,1.854
			c-0.117,0.285-0.199,0.597-0.234,0.741h-0.001c0,0-1.978,0.899-4.889,2.313l-1.087-2.187l-5.103,2.536l1.061,2.135
			c-1.479,0.714-3.04,1.465-4.63,2.228l-1.032-2.077l-1.341,0.666l-0.925-2.092c0.385-0.191,0.669-0.332,0.75-0.373l0.061-0.032
			l1.079-0.535c0.371-0.185,0.525-0.64,0.339-1.011l-0.283-0.572c-0.185-0.372-0.639-0.525-1.012-0.34l-6.094,3.028
			c-0.371,0.184-0.524,0.64-0.34,1.012l0.284,0.571c0.185,0.372,0.64,0.526,1.012,0.341c0,0,0.794-0.394,1.745-0.867l0.925,2.092
			l1.168-0.58l-2.47,1.228l0.992,1.997c-1.612,0.766-3.182,1.507-4.647,2.195l-0.947-1.906l-2.146,1.067l0.818-0.406l-0.861-1.696
			l1.837-0.913c0.372-0.186,0.525-0.64,0.339-1.012l-0.283-0.572c-0.185-0.372-0.64-0.524-1.013-0.34l-6.091,3.027
			c-0.373,0.186-0.525,0.641-0.34,1.013l0.284,0.571c0.184,0.371,0.641,0.524,1.012,0.34l1.797-0.892l0.862,1.695l-1.32,0.655
			l0.872,1.755c-0.903,0.404-1.673,0.739-2.263,0.984c-0.565,0.235-1.894,0.56-2.619,0.719l0.001,0.002
			c-0.025,0.003-0.05,0.003-0.075,0.007c0,0-0.355,0.068-0.949,0.149c-7.57,1.03-19.044-0.501-19.044-0.501
			c-0.411-0.054-0.59,0.2-0.394,0.568L49.1,101.622c0.293,0.294,0.738,0.265,0.989-0.066c0,0,6.407-8.452,11.193-13.719
			c0.417-0.459,0.678-0.734,0.678-0.734c0.018-0.018,0.032-0.041,0.047-0.06l0.001,0.002c0.258-0.267,0.9-0.927,1.202-1.227
			c-0.4,1.244-0.387,2.451,0.164,3.56C65.548,93.753,73.991,92.412,81.207,88.826z M75.987,78.321
			c7.032-3.494,12.847-3.501,13.606-1.972c0.76,1.529-2.758,6.157-9.79,9.653c-7.031,3.493-12.845,3.5-13.605,1.971
			C65.439,86.445,68.955,81.815,75.987,78.321z"/>
		<path class="st2" d="M79.466,64.921l0.283,0.572c0.185,0.371,0.64,0.524,1.013,0.34l1.823-0.906l0.85,1.702l2.458-1.221
			l-0.85-1.702l1.81-0.899c0.371-0.185,0.525-0.64,0.34-1.012l-0.283-0.572c-0.185-0.372-0.641-0.524-1.013-0.339l-6.091,3.027
			C79.435,64.093,79.282,64.548,79.466,64.921z"/>
	</g>
</g>
</svg>