<!-- Generator: Adobe Illustrator 19.1.0, SVG Export Plug-In  -->
<svg version="1.1"
	 xmlns="http://www.w3.org/2000/svg" xmlns:xlink="http://www.w3.org/1999/xlink" xmlns:a="http://ns.adobe.com/AdobeSVGViewerExtensions/3.0/"
	 x="0px" y="0px" width="135.895px" height="145.648px" viewBox="0 0 135.895 145.648"
	 style="enable-background:new 0 0 135.895 145.648;" xml:space="preserve">
<style type="text/css">
	.st0{fill:#EF395C;}
	.st1{fill:#CEE9F8;}
	.st2{fill:#8FC2D5;}
	.st3{fill:#F79A1F;}
	.st4{fill:#FFFFFF;}
</style>
<defs>
</defs>
<g>
	<path class="st0" d="M75.566,0L0,75.566c17.935,17.935,29.029,42.713,29.029,70.082h106.866C135.895,92.934,115.785,40.22,75.566,0
		z"/>
	<g id="research_1_">
		<g>
			<path class="st1" d="M84.206,127.93v-4.729c0-0.721-0.851-1.307-1.9-1.307H40.752c-1.052,0-1.902,0.586-1.902,1.307v4.729H84.206
				z"/>
			<rect x="38.049" y="126.829" class="st2" width="46.958" height="2.559"/>
			<g>
				<path class="st3" d="M83.159,69.621c-1.455-0.681-2.956-1.174-4.477-1.494l-5.785,12.377c3.421-3.063,7.102-4.338,9.945-3.01
					c4.926,2.301,5.473,11.538,1.225,20.623c-4.25,9.09-11.688,14.592-16.613,12.288c-2.844-1.327-4.225-4.968-4.069-9.555
					l-5.786,12.368c1.22,0.963,2.562,1.801,4.016,2.481c11.376,5.317,25.42-0.685,31.37-13.411
					C98.934,89.568,94.536,74.938,83.159,69.621z"/>
				<path class="st3" d="M69.828,82.459c-0.257,0.544-0.687,0.878-0.968,0.746l-7.479-3.497c-0.279-0.13-0.304-0.677-0.046-1.222
					l12.579-26.908c0.251-0.546,0.689-0.88,0.969-0.748l7.479,3.497c0.277,0.13,0.301,0.679,0.045,1.22L69.828,82.459z"/>
				<path class="st3" d="M64.975,89.533c-0.177,0.381-0.483,0.615-0.676,0.524l-5.253-2.456c-0.194-0.089-0.21-0.472-0.03-0.856
					l8.827-18.884c0.177-0.377,0.483-0.616,0.68-0.524l5.25,2.456c0.194,0.09,0.209,0.474,0.03,0.857L64.975,89.533z"/>
				<path class="st4" d="M73.151,80.512c-0.194,0.41-0.681,0.586-1.09,0.396l-10.97-5.131c-0.413-0.188-0.591-0.68-0.398-1.09
					l9.498-20.314c0.19-0.411,0.68-0.589,1.09-0.396l10.972,5.127c0.408,0.194,0.587,0.681,0.393,1.09L73.151,80.512z"/>
				<path class="st4" d="M83.147,54.817c-0.156,0.334-0.527,0.494-0.828,0.352l-8.057-3.766c-0.301-0.142-0.422-0.528-0.262-0.862
					l5.85-12.518c0.157-0.335,0.53-0.491,0.831-0.352l8.058,3.769c0.3,0.141,0.417,0.524,0.261,0.861L83.147,54.817z"/>
				<path class="st3" d="M85.619,52.185c-0.193,0.41-0.646,0.603-1.015,0.43l-9.848-4.603c-0.368-0.171-0.513-0.646-0.317-1.055
					l0.362-0.779c0.189-0.41,0.643-0.604,1.012-0.431l9.851,4.605c0.368,0.174,0.51,0.643,0.319,1.055L85.619,52.185z"/>
				<path class="st3" d="M64.93,110.134c-0.193,0.407-0.679,0.585-1.091,0.396l-10.014-4.683c-0.412-0.193-0.589-0.682-0.396-1.089
					l0.232-0.495c0.19-0.416,0.679-0.591,1.09-0.396l10.016,4.682c0.41,0.194,0.587,0.679,0.392,1.09L64.93,110.134z"/>
				<path class="st1" d="M57.165,106.816c-0.39,0.831-1.039,1.354-1.449,1.163L45.7,103.297c-0.408-0.195-0.426-1.027-0.034-1.86
					l0.469-1.008c0.391-0.834,1.038-1.354,1.448-1.161l10.015,4.682c0.412,0.193,0.428,1.023,0.037,1.857L57.165,106.816z"/>
				<path class="st3" d="M67.818,105.067c-0.393,0.831-1.04,1.352-1.453,1.164l-10.015-4.683c-0.41-0.192-0.426-1.026-0.035-1.859
					l0.47-1.006c0.39-0.836,1.038-1.354,1.447-1.164l10.019,4.682c0.407,0.19,0.43,1.027,0.036,1.86L67.818,105.067z"/>
				<path class="st2" d="M84.252,72.46c-1.336,2.856-4.735,4.089-7.591,2.754c-2.854-1.334-4.089-4.732-2.752-7.587
					c1.336-2.856,4.731-4.089,7.59-2.753C84.354,66.207,85.585,69.605,84.252,72.46z"/>
				<path class="st1" d="M83.329,72.03c-1.098,2.343-3.889,3.356-6.234,2.26c-2.346-1.1-3.357-3.889-2.262-6.232
					c1.098-2.346,3.889-3.359,6.232-2.263C83.409,66.894,84.425,69.683,83.329,72.03z"/>
				<path class="st1" d="M69.804,103.901c-0.261,0.565-0.811,0.866-1.22,0.676L42.892,92.563c-0.409-0.192-0.53-0.805-0.267-1.367
					l0.319-0.682c0.263-0.568,0.813-0.87,1.221-0.676l25.694,12.01c0.41,0.195,0.53,0.807,0.266,1.37L69.804,103.901z"/>
			</g>
			<path class="st1" d="M81.543,124.707l-3.574-9.06c-0.951-2.418-2.454-4.376-4.994-4.376c-1.807,0-3.439,1.958-3.641,4.376
				l-0.767,9.06H81.543z"/>
			<path class="st3" d="M76.062,114.941c0,1.535-1.244,2.773-2.775,2.773c-1.531,0-2.772-1.238-2.772-2.773
				c0-1.53,1.242-2.774,2.772-2.774C74.818,112.166,76.062,113.411,76.062,114.941z"/>
		</g>
	</g>
</g>
</svg>