<!-- Generator: Adobe Illustrator 19.1.0, SVG Export Plug-In  -->
<svg version="1.1"
	 xmlns="http://www.w3.org/2000/svg" xmlns:xlink="http://www.w3.org/1999/xlink" xmlns:a="http://ns.adobe.com/AdobeSVGViewerExtensions/3.0/"
	 x="0px" y="0px" width="135.895px" height="145.648px" viewBox="0 0 135.895 145.648"
	 style="enable-background:new 0 0 135.895 145.648;" xml:space="preserve">
<style type="text/css">
	.st0{fill:#F5A71D;}
	.st1{fill:#A5D9E7;}
</style>
<defs>
</defs>
<g>
	<path class="st0" d="M29.029,0c0,27.369-11.093,52.146-29.029,70.082l75.566,75.566C112.84,108.373,135.895,56.879,135.895,0
		H29.029z"/>
	<g>
		<path class="st1" d="M61.481,49.782c4.045-0.735,7.136,0.78,8.494,1.638c1.015-0.551,2.945-1.437,5.35-1.75
			c0.053-2.751,1.277-7.325,5.46-9.467c0.163-2.026-1.563-6.79-7.754-7.766c-5.694-0.899-8.297,3.56-8.405,3.75
			c-0.196,0.345-0.569,0.57-0.987,0.593c-0.418,0.024-0.823-0.154-1.067-0.474c-0.063-0.077-1.95-2.247-7.564-1.033
			c-4.584,0.991-5.52,4.247-5.71,5.442c0.25,0.144,0.496,0.297,0.737,0.461c4.702,3.182,6.133,8.276,6.538,11.732
			C57.555,51.523,59.093,50.217,61.481,49.782z"/>
		<path class="st1" d="M109.439,57.368c-0.367-9.305-6.036-12.876-6.036-12.876s-0.683-4.493-5.072-9.306
			c-6.816-6.972-15.423-5.778-15.423-5.778c-11.218-10.181-22.603-2.445-22.603-2.445c-15.884-4.942-20.334,6.642-20.334,6.642
			c-9.057,0.847-16.389,10.77-9.7,21.46c5.131,8.2,12.624,8.336,15.839,7.954c1.028-2.553,3.277-5.419,8.159-6.666
			c0.034-0.447,0.584-9.144-5.639-13.354c-3.727-2.522-7.86-1.921-10.12-0.296c-2.144,1.541-2.739,3.939-1.635,6.578
			c0.586,1.345,1.447,2.233,2.625,2.701c2.278,0.902,4.985-0.115,5.012-0.124c0.614-0.235,1.325,0.04,1.585,0.615
			c0.261,0.576-0.022,1.234-0.635,1.474c-0.147,0.057-3.641,1.391-6.867,0.123c-1.791-0.704-3.125-2.041-3.966-3.971
			c-1.508-3.603-0.612-7.032,2.393-9.191c2.763-1.986,6.556-2.381,10.004-1.219c0.579-2.352,2.557-5.569,7.412-6.617
			c4.641-1.003,7.415-0.01,8.85,0.884c1.698-2.064,5.159-4.529,10.121-3.745c4.137,0.651,6.501,2.691,7.757,4.287
			c1.164,1.482,1.884,3.226,2.024,4.842c4.671-1.064,10.134,0.315,13.324,3.374c2.605,2.496,3.528,5.872,2.634,9.569
			c1.197,1.1,3.541,3.909,2.868,8.609c-0.355,2.478-1.817,4.385-4.113,5.368c-2.945,1.262-6.949,0.824-10.203-1.115
			c-4.608-2.746-11.787-2.934-15.059-0.392c-2.548,1.978-5.492,3.923-8.285,3.698c-0.219-0.018-0.438-0.049-0.655-0.095
			c-1.651-0.347-2.978-1.475-3.941-3.354c-0.291-0.564-0.039-1.237,0.563-1.502c0.602-0.266,1.326-0.021,1.616,0.545
			c0.632,1.23,1.373,1.919,2.267,2.107c1.998,0.42,4.879-1.593,6.874-3.142c4.121-3.202,12.321-3.095,17.905,0.233
			c2.574,1.534,5.67,1.912,7.888,0.961c1.548-0.662,2.497-1.921,2.743-3.636c0.683-4.769-2.492-6.967-2.525-6.989
			c-0.416-0.281-0.602-0.775-0.465-1.231c0.963-3.202,0.327-5.992-1.837-8.067c-2.636-2.524-7.195-3.645-11.089-2.726
			c-5.127,1.211-5.846,6.342-5.943,8.021c3.007,0.162,6.437,1.422,9.651,5.083c0.426,0.485,0.353,1.197-0.162,1.591
			c-0.515,0.392-1.276,0.316-1.703-0.168c-6.839-7.793-14.564-2.603-14.89-2.378c-0.459,0.316-1.1,0.288-1.529-0.071
			c-0.115-0.094-2.977-2.39-7.158-1.63c-3.977,0.724-4.657,5.242-4.664,5.286c-0.068,0.485-0.463,0.868-0.979,0.954
			c-9.216,1.506-8.669,9.082-8.642,9.403c0.034,0.387-0.145,0.743-0.445,0.967c1.444,11.253,17.566,10.335,17.566,10.335
			c0.031,0.126,0.065,0.247,0.098,0.37c0.459,0.168,11.286,4.042,16.137-1.351c1.203-1.87,1.596-3.481,1.133-4.663
			c-0.516-1.32-1.948-1.816-1.963-1.822c-0.633-0.204-0.974-0.849-0.761-1.439c0.213-0.588,0.899-0.902,1.532-0.695
			c0.103,0.033,2.545,0.849,3.464,3.202c0.74,1.892,0.276,4.137-1.378,6.676c-0.029,0.044-0.062,0.087-0.098,0.127
			c-3.011,3.422-7.624,3.985-11.547,3.666c-2.186-0.177-4.156-0.626-5.519-1.007c2.857,5.849,9.208,8.572,15.988,8.916
			c7.87,0.399,9.368-5.153,9.368-5.153c10.626-3.863,8.274-13.88,8.274-13.88C103.972,71.3,109.807,66.674,109.439,57.368z"/>
	</g>
</g>
</svg>