<!-- Generator: Adobe Illustrator 19.1.0, SVG Export Plug-In  -->
<svg version="1.1"
	 xmlns="http://www.w3.org/2000/svg" xmlns:xlink="http://www.w3.org/1999/xlink" xmlns:a="http://ns.adobe.com/AdobeSVGViewerExtensions/3.0/"
	 x="0px" y="0px" width="145.648px" height="135.895px" viewBox="0 0 145.648 135.895"
	 style="enable-background:new 0 0 145.648 135.895;" xml:space="preserve">
<style type="text/css">
	.st0{fill:#34A1BF;}
	.st1{fill:#FFFFFF;}
	.st2{fill:#8FC2D5;}
	.st3{fill:#F26327;}
	.st4{fill:#DB4226;}
	.st5{fill:#1D5F8E;}
	.st6{fill:#103754;}
	.st7{fill:#CEE9F8;}
</style>
<defs>
</defs>
<g>
	<path class="st0" d="M70.082,0C52.146,17.936,27.369,29.029,0,29.029v106.866c52.714,0,105.428-20.11,145.648-60.33L70.082,0z"/>
	<g id="art_1_">
		<path class="st1" d="M65.561,73.217c5.862-5.161,9.61-7.975,9.381-15.009c-0.308-9.377-6.325-18.636-24.39-18.06
			c-22.045,0.702-44.404,32.86-9.383,64.265c13.604,12.195,31.849-2.518,24.862-15.012C64.057,85.866,60.822,77.387,65.561,73.217z
			 M60.401,98.732c-1.635,3.738-5.452,5.679-8.522,4.334c-3.07-1.344-4.235-5.462-2.597-9.203c1.634-3.738,5.451-5.678,8.52-4.334
			C60.872,90.873,62.037,94.993,60.401,98.732z"/>
		<path class="st2" d="M68.754,53.021c0,2.526-2.046,4.571-4.573,4.571c-2.526,0-4.574-2.044-4.574-4.571
			c0-2.528,2.047-4.575,4.574-4.575C66.707,48.446,68.754,50.493,68.754,53.021z"/>
		<circle class="st3" cx="49.848" cy="49.528" r="4.573"/>
		<circle class="st4" cx="36.626" cy="56.067" r="4.574"/>
		<path class="st5" d="M28.412,65.614c2.187-1.264,4.983-0.514,6.25,1.672c1.261,2.188,0.511,4.984-1.678,6.249
			c-2.186,1.262-4.983,0.512-6.247-1.674C25.474,69.674,26.225,66.876,28.412,65.614z"/>
		<circle class="st6" cx="34.841" cy="83.732" r="4.573"/>
		<path class="st7" d="M88.468,93.069c-0.659,2.849-5.587,2.849-6.245,0c-0.975-5.034-1.737-8.187-2.934-13.197
			c4.03-0.444,8.088-0.444,12.108,0C90.206,84.882,89.444,88.035,88.468,93.069z"/>
		<path class="st6" d="M89.166,45.938c-0.418-7.657-7.226-7.655-7.64,0.004c-0.708,12.869-1.281,20.966-2.127,33.836
			c3.966,0,7.928,0,11.894,0C90.446,66.908,89.879,58.811,89.166,45.938z"/>
		<rect x="79.022" y="79.764" class="st6" width="12.647" height="1.858"/>
		<path class="st4" d="M80.238,100.192c1.194,1.776,5.076,5.469,2.996,8.241c0,0,6.271-3.911,7.781-8.771
			c0.352-1.128,0.548-2.09,0.45-3.358c-0.257-3.38-3.207-5.915-6.59-5.659c-3.384,0.26-5.916,3.214-5.659,6.593
			C79.301,98.336,79.668,99.34,80.238,100.192z"/>
		<path class="st3" d="M84.107,99.6c-3.098-5.687,0.885-8.957,0.885-8.957c-0.038,0.002-0.078,0-0.117,0.002
			c-1.086,0.084-2.082,0.448-2.931,1.012c-1.788,1.192-2.901,3.287-2.728,5.581c0.085,1.098,0.451,2.102,1.022,2.954
			c1.194,1.776,5.076,5.469,2.996,8.241C83.234,108.433,87.203,105.288,84.107,99.6z"/>
	</g>
</g>
</svg>