<!-- Generator: Adobe Illustrator 19.1.0, SVG Export Plug-In  -->
<svg version="1.1"
	 xmlns="http://www.w3.org/2000/svg" xmlns:xlink="http://www.w3.org/1999/xlink" xmlns:a="http://ns.adobe.com/AdobeSVGViewerExtensions/3.0/"
	 x="0px" y="0px" width="135.895px" height="145.647px" viewBox="0 0 135.895 145.647"
	 style="enable-background:new 0 0 135.895 145.647;" xml:space="preserve">
<style type="text/css">
	.st0{fill:#6CA644;}
	.st1{fill:#8FC2D5;}
	.st2{fill:#FFFFFF;}
	.st3{fill:#0F303F;}
	.st4{fill:#A5D9E7;}
</style>
<defs>
</defs>
<g>
	<path class="st0" d="M106.866,0C106.866,0,106.866,0,106.866,0L0,0c0,52.714,20.11,105.428,60.329,145.647l75.566-75.565
		C117.959,52.147,106.866,27.369,106.866,0z"/>
	<g id="screen_1_">
		<g>
			<g>
				<path class="st1" d="M58.855,77.016c-0.779,3.185-1.559,6.37-2.337,9.557c7.272,0,14.542,0,21.815,0
					c-0.779-3.186-1.559-6.372-2.338-9.557C70.281,77.016,64.57,77.016,58.855,77.016z"/>
				<path class="st2" d="M79.68,86.404h-24.51c-0.621,0-1.126,0.591-1.126,1.323v0.497h26.762v-0.497
					C80.805,86.996,80.301,86.404,79.68,86.404z"/>
				<path class="st2" d="M30.569,73.298v5.267c0,1.014,0.819,1.834,1.835,1.834h70.042c1.012,0,1.835-0.82,1.835-1.834v-5.267
					H30.569z"/>
				<path class="st3" d="M104.28,73.298v-44.59c0-1.014-0.822-1.835-1.835-1.835H32.404c-1.016,0-1.835,0.821-1.835,1.835v44.59
					H104.28z"/>
				<rect x="33.586" y="29.74" class="st4" width="67.676" height="40.514"/>
			</g>
		</g>
	</g>
</g>
</svg>