<!-- Generator: Adobe Illustrator 19.1.0, SVG Export Plug-In  -->
<svg version="1.1"
	 xmlns="http://www.w3.org/2000/svg" xmlns:xlink="http://www.w3.org/1999/xlink" xmlns:a="http://ns.adobe.com/AdobeSVGViewerExtensions/3.0/"
	 x="0px" y="0px" width="135.895px" height="145.648px" viewBox="0 0 135.895 145.648"
	 style="enable-background:new 0 0 135.895 145.648;" xml:space="preserve">
<style type="text/css">
	.st0{fill:#F1977E;}
	.st1{fill:#FFFFFF;}
	.st2{fill:#DB4226;}
</style>
<defs>
</defs>
<g>
	<path class="st0" d="M135.895,75.566L60.329,0C23.055,37.274,0,88.769,0,145.648h106.866
		C106.866,118.279,117.96,93.501,135.895,75.566z"/>
	<g>
		<path class="st1" d="M93.438,91.297c0.993-0.956,1.927-1.909,2.788-2.853c0.562,0.219,1.172,0.345,1.813,0.345
			c2.748,0,4.978-2.231,4.978-4.98c0-1.205-0.428-2.309-1.139-3.171c1.966-3.815,2.388-7.209,0.917-9.762
			c-1.576-2.726-5.041-4.167-10.028-4.167c-3.564,0-7.776,0.722-12.338,2.05c-2.742-11.097-7.494-18.302-13.004-18.302
			c-5.51,0-10.26,7.204-13.005,18.302c-2.023-0.588-3.974-1.057-5.834-1.395c-0.006-2.748-2.231-4.971-4.98-4.971
			c-2.614,0-4.756,2.017-4.959,4.581c-3.159,0.532-5.409,1.855-6.592,3.902c-2.756,4.774,1.112,12.494,9.356,20.422
			c-8.243,7.929-12.111,15.648-9.356,20.421c1.575,2.727,5.043,4.168,10.026,4.168h0.001c3.564,0,7.776-0.723,12.338-2.052
			c0.431,1.74,0.907,3.389,1.434,4.927c-0.759,0.873-1.219,2.009-1.219,3.256c0,2.751,2.231,4.98,4.98,4.98
			c0.057,0,0.109-0.007,0.164-0.009c2.244,3.282,4.845,5.149,7.645,5.149c5.51,0,10.262-7.203,13.004-18.303
			c4.562,1.329,8.774,2.052,12.338,2.052c4.987,0,8.453-1.441,10.028-4.168C105.549,106.945,101.682,99.226,93.438,91.297z
			 M92.766,69.268c2.803,0,6.432,0.501,7.809,2.889c0.964,1.667,0.68,4.103-0.747,7.007c-0.558-0.215-1.158-0.338-1.79-0.338
			c-2.752,0-4.981,2.231-4.981,4.982c0,1.194,0.421,2.291,1.123,3.148c-0.799,0.862-1.664,1.737-2.593,2.623
			c-2.644-2.37-5.661-4.74-8.997-7.039c-0.323-4.03-0.864-7.822-1.591-11.289C85.368,69.967,89.384,69.268,92.766,69.268z
			 M73.901,102.511c-2.161,1.248-4.327,2.401-6.476,3.456c-2.148-1.055-4.314-2.208-6.476-3.456
			c-2.204-1.272-4.277-2.57-6.233-3.878c-0.155-2.347-0.241-4.791-0.241-7.335c0-2.544,0.086-4.99,0.241-7.337
			c1.956-1.308,4.03-2.607,6.233-3.878c2.161-1.248,4.328-2.401,6.476-3.455c2.147,1.054,4.315,2.207,6.476,3.455
			c2.202,1.271,4.276,2.57,6.23,3.878c0.156,2.347,0.244,4.793,0.244,7.337c0,2.544-0.088,4.988-0.244,7.335
			C78.176,99.942,76.104,101.24,73.901,102.511z M79.867,101.864c-0.307,3.127-0.747,6.043-1.293,8.721
			c-2.646-0.884-5.399-1.97-8.205-3.236c1.603-0.823,3.208-1.694,4.81-2.618C76.797,103.797,78.358,102.838,79.867,101.864z
			 M64.477,107.349c-2.804,1.266-5.556,2.353-8.204,3.236c-0.547-2.678-0.986-5.594-1.293-8.721
			c1.509,0.974,3.069,1.933,4.688,2.867C61.27,105.655,62.876,106.526,64.477,107.349z M52.051,96.789
			c-2.56-1.833-4.869-3.677-6.92-5.492c2.05-1.815,4.36-3.659,6.92-5.491c-0.087,1.793-0.137,3.624-0.137,5.492
			C51.914,93.164,51.964,94.995,52.051,96.789z M54.981,80.73c0.307-3.127,0.746-6.043,1.293-8.72
			c2.648,0.884,5.4,1.969,8.204,3.235c-1.602,0.823-3.207,1.695-4.808,2.619C58.05,78.798,56.49,79.756,54.981,80.73z M70.37,75.245
			c2.806-1.266,5.557-2.351,8.205-3.235c0.545,2.678,0.986,5.593,1.293,8.72c-1.509-0.975-3.07-1.933-4.688-2.866
			C73.578,76.94,71.973,76.067,70.37,75.245z M82.797,85.804c2.56,1.834,4.87,3.677,6.92,5.493c-2.05,1.816-4.36,3.659-6.92,5.493
			c0.089-1.795,0.137-3.624,0.137-5.492C82.935,89.43,82.886,87.599,82.797,85.804z M67.424,53.017c3.957,0,8.09,6.165,10.593,16.49
			c-3.408,1.122-6.972,2.564-10.593,4.286c-3.621-1.722-7.187-3.164-10.592-4.286C59.335,59.182,63.466,53.017,67.424,53.017z
			 M34.274,72.158c0.916-1.588,2.83-2.339,4.832-2.666c0.796,1.69,2.51,2.861,4.501,2.861c1.852,0,3.464-1.012,4.323-2.511
			c1.874,0.332,3.857,0.804,5.921,1.411c-0.727,3.467-1.269,7.259-1.592,11.289c-3.335,2.299-6.353,4.669-8.997,7.039
			C35.569,82.248,32.295,75.585,34.274,72.158z M42.082,113.324c-2.801,0-6.431-0.501-7.808-2.887
			c-1.979-3.428,1.296-10.091,8.988-17.422c2.644,2.37,5.663,4.739,8.997,7.038c0.323,4.03,0.865,7.82,1.592,11.29
			C49.481,112.626,45.463,113.325,42.082,113.324z M67.424,129.577c-1.728,0-3.49-1.179-5.135-3.364
			c1.384-0.884,2.305-2.43,2.305-4.196c0-2.751-2.229-4.982-4.979-4.982c-0.559,0-1.097,0.097-1.599,0.268
			c-0.425-1.316-0.823-2.721-1.184-4.217c3.404-1.121,6.97-2.564,10.592-4.284c3.621,1.722,7.185,3.163,10.593,4.284
			C75.514,123.413,71.381,129.577,67.424,129.577z M100.575,110.437c-1.378,2.386-5.006,2.887-7.809,2.887
			c-3.382,0-7.399-0.698-11.768-1.981c0.728-3.469,1.269-7.26,1.591-11.29c3.336-2.299,6.353-4.668,8.997-7.038
			C99.281,100.346,102.556,107.009,100.575,110.437z"/>
		<circle class="st2" cx="67.424" cy="91.296" r="7.792"/>
		<circle class="st2" cx="43.553" cy="67.373" r="5.122"/>
		<circle class="st2" cx="98.125" cy="83.648" r="5.122"/>
		<circle class="st2" cx="59.633" cy="122.055" r="5.122"/>
	</g>
</g>
</svg>